<?xml version="1.0" encoding="utf-8"?>
<!-- Generator: Adobe Illustrator 23.0.6, SVG Export Plug-In . SVG Version: 6.00 Build 0)  -->
<svg version="1.1" id="Layer_1" xmlns="http://www.w3.org/2000/svg" xmlns:xlink="http://www.w3.org/1999/xlink" x="0px"
	y="0px" viewBox="100 0 208.96 308.96" style="enable-background:new 100 0 208.96 308.96;" xml:space="preserve">
	<style type="text/css">
		.st0 {
			display: none;
		}

		.st1 {
			display: inline;
			fill: #FFF6E3;
		}

		.st2 {
			display: inline;
			opacity: 0.78;
			fill: url(#XMLID_2_);
		}

		.st3 {
			display: inline;
			fill: url(#XMLID_3_);
		}

		.st4 {
			display: inline;
			fill: url(#XMLID_4_);
		}

		.st5 {
			display: inline;
			fill: url(#XMLID_5_);
		}

		.st6 {
			display: inline;
		}

		.st7 {
			opacity: 0.94;
		}

		.st8 {
			fill: #D9D9D9;
		}

		.st9 {
			fill: none;
		}

		.st10 {
			fill: #EA471E;
		}

		.st11 {
			fill: #4D4D4D;
		}

		.st12 {
			fill: #CB170F;
		}

		.st13 {
			display: inline;
			fill: url(#SVGID_1_);
		}

		.st14 {
			display: inline;
			fill: url(#SVGID_2_);
		}

		.st15 {
			display: inline;
			fill: url(#SVGID_3_);
		}

		.st16 {
			fill: url(#SVGID_4_);
		}

		.st17 {
			fill: url(#SVGID_5_);
		}

		.st18 {
			fill: url(#SVGID_6_);
		}

		.st19 {
			fill: url(#SVGID_7_);
		}

		.st20 {
			fill: url(#SVGID_8_);
		}

		.st21 {
			fill: url(#SVGID_9_);
		}

		.st22 {
			fill: url(#SVGID_10_);
		}

		.st23 {
			fill: url(#SVGID_11_);
		}

		.st24 {
			fill: url(#SVGID_12_);
		}

		.st25 {
			display: inline;
			fill: url(#SVGID_13_);
		}

		.st26 {
			display: inline;
			opacity: 0.74;
			fill: url(#SVGID_14_);
		}

		.st27 {
			fill: url(#SVGID_15_);
		}

		.st28 {
			fill: url(#SVGID_16_);
		}

		.st29 {
			fill: url(#SVGID_17_);
		}

		.st30 {
			opacity: 0.15;
			fill: #FFFFFF;
		}

		.st31 {
			fill: url(#SVGID_18_);
		}

		.st32 {
			fill: url(#SVGID_19_);
		}

		.st33 {
			fill: url(#SVGID_20_);
		}

		.st34 {
			fill: url(#SVGID_21_);
		}

		.st35 {
			fill: url(#SVGID_22_);
		}

		.st36 {
			fill: url(#SVGID_23_);
		}

		.st37 {
			fill: url(#SVGID_24_);
		}

		.st38 {
			fill: url(#SVGID_25_);
		}

		.st39 {
			fill: url(#SVGID_26_);
		}

		.st40 {
			fill: url(#SVGID_27_);
		}

		.st41 {
			opacity: 0.22;
			fill: #070000;
		}

		.st42 {
			fill: url(#SVGID_28_);
		}

		.st43 {
			fill: #E3E3E3;
		}

		.st44 {
			fill: url(#SVGID_29_);
		}
	</style>
	<g id="XMLID_661_" class="st0">
		<path id="XMLID_524_" class="st1" d="M223.16,30.19c8.59,3.58,16.05,8.73,22.18,14.98c6.13,6.25,10.94,13.6,14.22,21.57
		c3.28,7.98,5.05,16.58,5.09,25.33c0.05,8.76-1.62,17.66-5.2,26.25c-3.58,8.59-8.73,16.05-14.98,22.18
		c-6.25,6.13-13.6,10.94-21.57,14.22c-7.97,3.28-16.58,5.05-25.33,5.09c-8.75,0.05-17.66-1.62-26.25-5.2
		c-8.59-3.58-16.05-8.73-22.18-14.98c-6.13-6.25-10.93-13.6-14.22-21.57c-3.28-7.98-5.05-16.58-5.09-25.33
		c-0.05-8.76,1.62-17.66,5.2-26.25c3.58-8.59,8.73-16.05,14.98-22.18c6.25-6.13,13.6-10.93,21.57-14.22
		c7.98-3.28,16.58-5.05,25.33-5.09C205.66,24.94,214.57,26.61,223.16,30.19z" />

		<radialGradient id="XMLID_2_" cx="-2701.4553" cy="564.7318" r="129.2091"
			gradientTransform="matrix(-0.101 0.5272 -0.5114 -0.0992 213.0078 1572.6132)" gradientUnits="userSpaceOnUse">
			<stop offset="0" style="stop-color:#F8F6F6" />
			<stop offset="0.4548" style="stop-color:#F5F2F2" />
			<stop offset="0.4549" style="stop-color:#F5F2F2" />
			<stop offset="0.6452" style="stop-color:#EEEAEA" />
			<stop offset="0.7089" style="stop-color:#E7E2E2" />
			<stop offset="0.8083" style="stop-color:#D5CCCC" />
			<stop offset="0.875" style="stop-color:#C5B9B9" />
			<stop offset="0.9886" style="stop-color:#5E3C3C" />
			<stop offset="1" style="stop-color:#532F2F" />
		</radialGradient>
		<path id="XMLID_543_" class="st2" d="M183.93,160.48c-36.49-7.08-60.24-43.32-53.03-80.94c7.2-37.62,42.63-62.38,79.12-55.3
		c36.49,7.08,60.24,43.32,53.03,80.93C255.85,142.8,220.42,167.55,183.93,160.48z" />

		<linearGradient id="XMLID_3_" gradientUnits="userSpaceOnUse" x1="144.0186" y1="118.6833" x2="302.7079"
			y2="79.3155" gradientTransform="matrix(0.9822 0.1881 -0.1881 0.9822 -3.0974 -46.8605)">
			<stop offset="0" style="stop-color:#C77219" />
			<stop offset="0.1976" style="stop-color:#FFD650" />
			<stop offset="0.3041" style="stop-color:#FFF8AD" />
			<stop offset="0.494" style="stop-color:#FFFFD8" />
			<stop offset="0.6652" style="stop-color:#FAB849" />
			<stop offset="0.767" style="stop-color:#FFD149" />
			<stop offset="0.8804" style="stop-color:#FFD75A" />
			<stop offset="1" style="stop-color:#C77219" />
		</linearGradient>
		<path id="XMLID_530_" class="st3" d="M270.63,109.26c2.33-10.14,2.49-20.26,0.79-29.9c-1.7-9.64-5.26-18.78-10.37-26.95
		c-5.12-8.17-11.79-15.36-19.72-21.09c-7.93-5.73-17.11-10-27.25-12.33c-10.14-2.33-20.26-2.49-29.9-0.79
		c-9.64,1.7-18.78,5.26-26.95,10.37c-8.17,5.12-15.36,11.79-21.09,19.72c-5.73,7.93-10,17.11-12.33,27.25
		c-2.33,10.14-2.49,20.26-0.79,29.9c1.7,9.64,5.26,18.78,10.37,26.95c5.12,8.17,11.79,15.36,19.72,21.09
		c7.93,5.73,17.11,10,27.25,12.33c10.14,2.33,20.26,2.49,29.9,0.79c9.64-1.7,18.78-5.26,26.94-10.38
		c8.17-5.12,15.36-11.79,21.09-19.72C264.04,128.58,268.31,119.4,270.63,109.26z M249.96,130.45c-4.95,6.84-11.15,12.6-18.2,17.02
		c-7.05,4.42-14.93,7.49-23.25,8.95c-8.31,1.47-17.05,1.33-25.8-0.68c-8.75-2.01-16.67-5.69-23.51-10.64
		c-6.84-4.94-12.6-11.15-17.02-18.2c-4.42-7.05-7.49-14.94-8.95-23.25c-1.47-8.31-1.33-17.05,0.68-25.8
		c2.01-8.75,5.69-16.67,10.64-23.51c4.95-6.84,11.15-12.6,18.2-17.02c7.05-4.42,14.94-7.49,23.25-8.95
		c8.31-1.47,17.05-1.33,25.8,0.68c8.75,2.01,16.67,5.69,23.51,10.64c6.84,4.95,12.6,11.15,17.02,18.2
		c4.42,7.05,7.49,14.94,8.95,23.25c1.47,8.31,1.33,17.05-0.68,25.8C258.59,115.68,254.9,123.61,249.96,130.45z" />

		<linearGradient id="XMLID_4_" gradientUnits="userSpaceOnUse" x1="223.1533" y1="191.4296" x2="222.775"
			y2="24.9618" gradientTransform="matrix(0.9822 0.1881 -0.1881 0.9822 -3.0974 -46.8605)">
			<stop offset="0" style="stop-color:#E7A534" />
			<stop offset="1" style="stop-color:#FBEB78" />
		</linearGradient>
		<path id="XMLID_549_" class="st4" d="M272.55,91.63c-0.11-10.4-2.32-20.29-6.22-29.26c-3.9-8.97-9.5-17.03-16.39-23.78
		c-6.89-6.75-15.06-12.18-24.11-15.9c-9.05-3.72-18.98-5.72-29.38-5.62c-10.4,0.11-20.29,2.32-29.26,6.22
		c-8.97,3.9-17.03,9.5-23.78,16.39c-6.75,6.89-12.18,15.06-15.9,24.11c-3.72,9.05-5.72,18.98-5.62,29.38
		c0.11,10.4,2.32,20.29,6.22,29.26c3.9,8.97,9.5,17.03,16.39,23.78c6.88,6.75,15.06,12.18,24.11,15.9
		c9.05,3.72,18.98,5.72,29.38,5.62c10.4-0.11,20.29-2.32,29.26-6.22c8.97-3.9,17.03-9.5,23.78-16.39
		c6.75-6.89,12.18-15.06,15.9-24.11C270.65,111.96,272.66,102.03,272.55,91.63z M266.37,120.71c-3.67,8.94-9.04,17.01-15.7,23.81
		c-6.66,6.8-14.62,12.33-23.48,16.18c-8.86,3.86-18.62,6.04-28.89,6.14c-10.27,0.11-20.07-1.88-29.01-5.55
		c-8.94-3.67-17.01-9.04-23.8-15.7c-6.8-6.66-12.33-14.62-16.18-23.48c-3.86-8.86-6.04-18.62-6.14-28.89
		c-0.11-10.27,1.87-20.07,5.55-29.01c3.67-8.94,9.04-17.01,15.7-23.81c6.66-6.8,14.62-12.33,23.48-16.18
		c8.86-3.86,18.62-6.04,28.89-6.14c10.27-0.11,20.07,1.87,29.01,5.55c8.94,3.67,17.01,9.04,23.8,15.7
		c6.8,6.66,12.33,14.62,16.18,23.48c3.86,8.86,6.04,18.62,6.14,28.89C272.02,101.97,270.04,111.78,266.37,120.71z" />

		<linearGradient id="XMLID_5_" gradientUnits="userSpaceOnUse" x1="223.064" y1="34.1912" x2="222.8222"
			y2="164.4986" gradientTransform="matrix(0.9822 0.1881 -0.1881 0.9822 -3.0974 -46.8605)">
			<stop offset="0.0478" style="stop-color:#E7A534" />
			<stop offset="0.2284" style="stop-color:#E8A838" />
			<stop offset="0.3977" style="stop-color:#EAB043" />
			<stop offset="0.5626" style="stop-color:#EEBE56" />
			<stop offset="0.7238" style="stop-color:#F4D270" />
			<stop offset="0.8826" style="stop-color:#FBEB92" />
			<stop offset="0.885" style="stop-color:#FBEB93" />
		</linearGradient>
		<path id="XMLID_555_" class="st5" d="M244.41,138.63c5.91-6.04,10.68-13.2,13.94-21.14c3.26-7.94,5.02-16.64,4.93-25.76
		c-0.09-9.12-2.03-17.79-5.46-25.66c-3.42-7.87-8.33-14.93-14.37-20.85c-6.04-5.91-13.2-10.68-21.14-13.94
		c-7.94-3.26-16.64-5.02-25.76-4.92c-9.12,0.09-17.79,2.03-25.65,5.46c-7.87,3.42-14.93,8.33-20.85,14.37
		c-5.91,6.04-10.68,13.2-13.94,21.14c-3.26,7.94-5.02,16.64-4.93,25.76c0.09,9.12,2.03,17.79,5.46,25.66
		c3.42,7.87,8.33,14.93,14.37,20.85c6.04,5.91,13.2,10.68,21.14,13.94c7.94,3.26,16.64,5.02,25.76,4.93
		c9.12-0.09,17.79-2.03,25.65-5.45C231.43,149.58,238.5,144.67,244.41,138.63z M197.89,156.6c-8.86,0.09-17.32-1.62-25.04-4.79
		c-7.71-3.17-14.68-7.8-20.55-13.55c-5.87-5.75-10.64-12.62-13.97-20.26c-3.33-7.65-5.21-16.07-5.3-24.94
		c-0.09-8.86,1.62-17.32,4.79-25.04c3.17-7.71,7.8-14.68,13.55-20.55c5.75-5.87,12.62-10.64,20.26-13.97
		c7.65-3.33,16.07-5.21,24.93-5.3c8.86-0.09,17.32,1.62,25.04,4.79c7.71,3.17,14.68,7.8,20.55,13.55
		c5.87,5.75,10.64,12.62,13.97,20.26c3.33,7.65,5.21,16.07,5.3,24.93c0.09,8.86-1.62,17.32-4.79,25.04
		c-3.17,7.71-7.8,14.68-13.55,20.55c-5.75,5.87-12.62,10.64-20.26,13.97C215.18,154.63,206.75,156.51,197.89,156.6z" />
		<g id="XMLID_659_" class="st6">
			<defs>
				<path id="XMLID_660_" d="M272.31,91.71c-0.11-10.4-2.32-20.29-6.22-29.26c-3.9-8.97-9.5-17.03-16.39-23.78
				c-6.88-6.75-15.06-12.18-24.11-15.9c-9.05-3.72-18.98-5.72-29.38-5.62c-10.4,0.11-20.29,2.32-29.26,6.22
				c-8.97,3.9-17.03,9.5-23.78,16.39c-6.74,6.89-12.18,15.06-15.9,24.11c-3.72,9.05-5.72,18.98-5.62,29.38
				c0.11,10.4,2.32,20.29,6.22,29.26c3.9,8.97,9.5,17.03,16.39,23.78c6.89,6.75,15.06,12.18,24.11,15.9
				c9.05,3.72,18.98,5.72,29.38,5.62c10.4-0.11,20.29-2.32,29.26-6.22c8.97-3.91,17.03-9.5,23.78-16.39
				c6.74-6.89,12.18-15.06,15.9-24.11C270.41,112.04,272.42,102.11,272.31,91.71z" />
			</defs>
			<clipPath id="XMLID_6_">
				<use xlink:href="#XMLID_660_" style="overflow:visible;" />
			</clipPath>
		</g>
	</g>
	<g class="st7">
		<g id="_149931032_1_">
			<path class="st8" d="M194.64,45.64c9.46,0,18.93,2.3,27.39,6.67c0.08,0.05,0.17,0.1,0.25,0.14c14.23,7.42,24.71,19.93,29.51,35.24
			c4.79,15.26,3.34,31.45-4.07,45.6c-2.47,4.71-5.47,9.01-8.96,12.83l-9.5-4.95l22.95-44.01c0.93-1.79,0.7-3.97-0.6-5.52
			c-0.97-1.15-2.38-1.79-3.83-1.79c-0.5,0-1.01,0.08-1.5,0.23l-52.17,16.41l-16.41-52.17c-0.61-1.93-2.32-3.3-4.33-3.48
			c-0.15-0.01-0.29-0.02-0.44-0.02c-1.85,0-3.57,1.03-4.43,2.69l-22.95,44.01l-9.49-4.95c1.13-5.06,2.94-9.98,5.38-14.69
			C151.77,57.99,172.16,45.64,194.64,45.64 M194.64,40.64c-23.45,0-46.1,12.72-57.64,34.93c-3.3,6.36-5.48,13-6.56,19.71l17.23,8.98
			l25.26-48.44l17.91,56.94l56.94-17.91l-25.26,48.44l17.23,8.98c4.89-4.72,9.08-10.31,12.41-16.66
			c16.63-31.77,4.24-71.02-27.56-87.6l0-0.01C215.02,43.01,204.75,40.64,194.64,40.64L194.64,40.64z" />
		</g>
		<g id="_149931160_1_">
			<path class="st8" d="M168.78,105.04l4.19,13.33c0.01,0.03,0.02,0.06,0.03,0.08l4.09,13.01c0.4,1.26,1.28,2.32,2.46,2.93
			c0.72,0.38,1.51,0.57,2.31,0.57c0.5,0,1.01-0.08,1.5-0.23l13.09-4.12l13.34-4.2l-10.31,19.78c-0.61,1.18-0.73,2.55-0.34,3.81
			c0.4,1.26,1.28,2.32,2.46,2.93l1.32,0.69l11.17,5.82l3.14,1.63c-7.19,2.93-14.91,4.46-22.73,4.46c-9.56,0-19.11-2.35-27.64-6.79
			c-9.28-4.84-17.15-12.03-22.76-20.81c-3.75-5.87-6.46-12.37-7.99-19.15l3.13,1.63l6.24,3.26l6.24,3.26
			c0.74,0.38,1.53,0.57,2.31,0.57c1.8,0,3.55-0.98,4.44-2.69L168.78,105.04 M169.93,92.03l-15.89,30.48l-6.24-3.26l-6.24-3.26
			l-11.78-6.14c1.46,21.85,13.95,42.47,34.78,53.33c9.58,4.99,19.84,7.36,29.95,7.36c11.88,0,23.56-3.27,33.69-9.38l-11.79-6.15
			l-11.17-5.82l-1.32-0.69l15.89-30.48l-24.85,7.82l-13.09,4.12l-4.12-13.09l0,0L169.93,92.03L169.93,92.03z" />
		</g>
	</g>
	<g>
		<path class="st9" d="M249.16,134.05c-15.72,30.15-52.9,41.85-83.05,26.13c-30.15-15.72-41.84-52.9-26.13-83.05
		c15.72-30.15,52.9-41.85,83.04-26.13C253.19,66.72,264.88,103.9,249.16,134.05z" />
		<path id="_149931032_2_" class="st10" d="M223.04,51.01c-30.14-15.71-67.38-4-83.04,26.13c-3.13,6.03-5.19,12.32-6.22,18.68
		l16.33,8.51l23.94-45.92l16.98,53.97l53.97-16.98l-23.94,45.92l16.33,8.52c4.63-4.48,8.61-9.78,11.76-15.79
		C264.93,103.93,253.17,66.73,223.04,51.01L223.04,51.01z" />
		<path id="_149931160_2_" class="st11" d="M178.62,116.29l-7.41-23.56l-15.07,28.9l-5.92-3.09l-5.92-3.09l-11.17-5.82
		c1.39,20.71,13.22,40.26,32.97,50.55c19.75,10.3,42.55,8.81,60.33-1.91l-11.17-5.82l-10.59-5.52l-1.25-0.65l15.07-28.9l-23.56,7.41
		l-12.41,3.9L178.62,116.29L178.62,116.29z" />
	</g>
	<ellipse transform="matrix(0.9536 -0.3012 0.3012 0.9536 -49.6497 69.294)" class="st12" cx="199.93" cy="195.69"
		rx="79.61" ry="26.49" />
	<g class="st0">

		<linearGradient id="SVGID_1_" gradientUnits="userSpaceOnUse" x1="135.3867" y1="124.7514" x2="252.05"
			y2="31.7476" gradientTransform="matrix(0.9787 -0.205 0.205 0.9787 -28.3557 190.8665)">
			<stop offset="0.1455" style="stop-color:#000000" />
			<stop offset="0.2274" style="stop-color:#060606" />
			<stop offset="0.3337" style="stop-color:#161616" />
			<stop offset="0.4532" style="stop-color:#313131" />
			<stop offset="0.5825" style="stop-color:#565656" />
			<stop offset="0.7197" style="stop-color:#868686" />
			<stop offset="0.8612" style="stop-color:#BFBFBF" />
			<stop offset="1" style="stop-color:#FFFFFF" />
		</linearGradient>
		<polygon class="st13" points="210.74,272.6 161.74,257.89 145.71,180.6 194.7,195.32 	" />

		<linearGradient id="SVGID_2_" gradientUnits="userSpaceOnUse" x1="249.5787" y1="-15.3619" x2="211.7879"
			y2="85.1926" gradientTransform="matrix(0.9787 -0.205 0.205 0.9787 -28.3557 190.8665)">
			<stop offset="0.1455" style="stop-color:#000000" />
			<stop offset="0.2274" style="stop-color:#060606" />
			<stop offset="0.3337" style="stop-color:#161616" />
			<stop offset="0.4532" style="stop-color:#313131" />
			<stop offset="0.5825" style="stop-color:#565656" />
			<stop offset="0.7197" style="stop-color:#868686" />
			<stop offset="0.8612" style="stop-color:#BFBFBF" />
			<stop offset="1" style="stop-color:#FFFFFF" />
		</linearGradient>
		<polygon class="st14" points="194.7,195.32 145.71,180.6 215.17,155.55 264.17,170.27 	" />

		<linearGradient id="SVGID_3_" gradientUnits="userSpaceOnUse" x1="309.2543" y1="135.5411" x2="189.2687"
			y2="24.7265" gradientTransform="matrix(0.9787 -0.205 0.205 0.9787 -28.3557 190.8665)">
			<stop offset="0.1455" style="stop-color:#000000" />
			<stop offset="0.2274" style="stop-color:#060606" />
			<stop offset="0.3337" style="stop-color:#161616" />
			<stop offset="0.4532" style="stop-color:#313131" />
			<stop offset="0.5825" style="stop-color:#565656" />
			<stop offset="0.7197" style="stop-color:#868686" />
			<stop offset="0.8612" style="stop-color:#BFBFBF" />
			<stop offset="1" style="stop-color:#FFFFFF" />
		</linearGradient>
		<polygon class="st15" points="264.17,170.27 280.21,247.55 210.74,272.6 194.7,195.32 	" />
		<g class="st6">

			<radialGradient id="SVGID_4_" cx="217.5464" cy="49.592" r="109.9311"
				gradientTransform="matrix(0.9787 -0.205 0.205 0.9787 -28.3557 190.8665)" gradientUnits="userSpaceOnUse">
				<stop offset="0.1576" style="stop-color:#FFFFFF" />
				<stop offset="0.3856" style="stop-color:#B7B7B7" />
				<stop offset="0.8124" style="stop-color:#343434" />
				<stop offset="1" style="stop-color:#000000" />
			</radialGradient>
			<path class="st16" d="M170.2,236.53c-2.16-0.89-3.41,1.42-2.78,5.24c0.03,0.18,0.07,0.36,0.11,0.54c0.75,3.64,2.93,7.17,5,8.05
			c2.17,0.93,3.41-1.42,2.77-5.24c-0.03-0.18-0.06-0.36-0.11-0.54C174.44,240.95,172.27,237.41,170.2,236.53z" />

			<radialGradient id="SVGID_5_" cx="217.5588" cy="49.5927" r="109.955"
				gradientTransform="matrix(0.9787 -0.205 0.205 0.9787 -28.3557 190.8665)" gradientUnits="userSpaceOnUse">
				<stop offset="0.1576" style="stop-color:#FFFFFF" />
				<stop offset="0.3856" style="stop-color:#B7B7B7" />
				<stop offset="0.8124" style="stop-color:#343434" />
				<stop offset="1" style="stop-color:#000000" />
			</radialGradient>
			<path class="st17" d="M177.06,219.7c-2.18-0.93-3.41,1.42-2.75,5.25c0.03,0.18,0.07,0.36,0.1,0.54c0.76,3.64,2.93,7.17,4.97,8.01
			c2.17,0.92,3.4-1.43,2.77-5.21c-0.03-0.18-0.06-0.35-0.1-0.54C181.29,224.11,179.13,220.58,177.06,219.7z" />

			<radialGradient id="SVGID_6_" cx="217.5415" cy="49.5967" r="109.8949"
				gradientTransform="matrix(0.9787 -0.205 0.205 0.9787 -28.3557 190.8665)" gradientUnits="userSpaceOnUse">
				<stop offset="0.1576" style="stop-color:#FFFFFF" />
				<stop offset="0.3856" style="stop-color:#B7B7B7" />
				<stop offset="0.8124" style="stop-color:#343434" />
				<stop offset="1" style="stop-color:#000000" />
			</radialGradient>
			<path class="st18" d="M183.93,202.83c-2.16-0.89-3.41,1.42-2.77,5.25c0.04,0.17,0.07,0.36,0.11,0.53
			c0.76,3.64,2.92,7.18,4.99,8.05c2.17,0.93,3.41-1.42,2.75-5.25c-0.03-0.18-0.07-0.36-0.11-0.54
			C188.15,207.23,185.98,203.7,183.93,202.83z" />

			<radialGradient id="SVGID_7_" cx="217.5611" cy="49.5731" r="109.9691"
				gradientTransform="matrix(0.9787 -0.205 0.205 0.9787 -28.3557 190.8665)" gradientUnits="userSpaceOnUse">
				<stop offset="0.1576" style="stop-color:#FFFFFF" />
				<stop offset="0.3856" style="stop-color:#B7B7B7" />
				<stop offset="0.8124" style="stop-color:#343434" />
				<stop offset="1" style="stop-color:#000000" />
			</radialGradient>
			<path class="st19" d="M192.28,243.24c-2.17-0.92-3.41,1.43-2.77,5.25c0.03,0.18,0.06,0.36,0.1,0.54c0.76,3.64,2.93,7.17,5,8.05
			c2.17,0.93,3.4-1.42,2.76-5.24c-0.02-0.16-0.05-0.32-0.08-0.48C196.53,247.69,194.36,244.14,192.28,243.24z" />

			<radialGradient id="SVGID_8_" cx="217.5467" cy="49.5958" r="109.9306"
				gradientTransform="matrix(0.9787 -0.205 0.205 0.9787 -28.3557 190.8665)" gradientUnits="userSpaceOnUse">
				<stop offset="0.1576" style="stop-color:#FFFFFF" />
				<stop offset="0.3856" style="stop-color:#B7B7B7" />
				<stop offset="0.8124" style="stop-color:#343434" />
				<stop offset="1" style="stop-color:#000000" />
			</radialGradient>
			<path class="st20" d="M161.86,196.16c-2.17-0.93-3.41,1.42-2.77,5.2c0.03,0.18,0.06,0.35,0.1,0.54c0.75,3.64,2.93,7.17,5,8.06
			c2.17,0.92,3.42-1.42,2.77-5.25c-0.04-0.16-0.06-0.32-0.1-0.47C166.1,200.57,163.93,197,161.86,196.16z" />

			<radialGradient id="SVGID_9_" cx="217.547" cy="49.5845" r="109.9001"
				gradientTransform="matrix(0.9787 -0.205 0.205 0.9787 -28.3557 190.8665)" gradientUnits="userSpaceOnUse">
				<stop offset="0.1576" style="stop-color:#FFFFFF" />
				<stop offset="0.3856" style="stop-color:#B7B7B7" />
				<stop offset="0.8124" style="stop-color:#343434" />
				<stop offset="1" style="stop-color:#000000" />
			</radialGradient>
			<path class="st21" d="M208.43,176.99c0.19-0.07,0.37-0.12,0.55-0.19c3.65-1.32,5.07-2.93,3.18-3.69
			c-1.99-0.79-6.89-0.34-10.93,1.02c-0.19,0.06-0.37,0.12-0.55,0.19c-3.65,1.32-5.04,2.91-3.17,3.66
			C199.5,178.78,204.41,178.33,208.43,176.99z" />

			<radialGradient id="SVGID_10_" cx="217.5278" cy="49.5974" r="109.954"
				gradientTransform="matrix(0.9787 -0.205 0.205 0.9787 -28.3557 190.8665)" gradientUnits="userSpaceOnUse">
				<stop offset="0.1576" style="stop-color:#FFFFFF" />
				<stop offset="0.3856" style="stop-color:#B7B7B7" />
				<stop offset="0.8124" style="stop-color:#343434" />
				<stop offset="1" style="stop-color:#000000" />
			</radialGradient>
			<path class="st22" d="M236.56,214.94c-0.15,0.04-0.3,0.08-0.44,0.14c-2.97,1.07-4.95,4.53-4.46,7.91c0.49,3.61,3.5,5.82,6.68,4.95
			c0.15-0.04,0.29-0.08,0.44-0.14c2.97-1.07,4.95-4.53,4.49-7.96C242.77,216.24,239.77,214.03,236.56,214.94z" />

			<radialGradient id="SVGID_11_" cx="217.5507" cy="49.6016" r="109.9132"
				gradientTransform="matrix(0.9787 -0.205 0.205 0.9787 -28.3557 190.8665)" gradientUnits="userSpaceOnUse">
				<stop offset="0.1576" style="stop-color:#FFFFFF" />
				<stop offset="0.3856" style="stop-color:#B7B7B7" />
				<stop offset="0.8124" style="stop-color:#343434" />
				<stop offset="1" style="stop-color:#000000" />
			</radialGradient>
			<path class="st23" d="M223.84,239.21c-0.16,0.04-0.3,0.09-0.45,0.14c-2.97,1.07-4.95,4.53-4.48,7.96c0.49,3.6,3.49,5.8,6.71,4.9
			c0.15-0.05,0.3-0.09,0.45-0.14c2.97-1.08,4.96-4.5,4.48-7.93C230.06,240.55,227.05,238.34,223.84,239.21z" />

			<radialGradient id="SVGID_12_" cx="217.5538" cy="49.5906" r="109.9161"
				gradientTransform="matrix(0.9787 -0.205 0.205 0.9787 -28.3557 190.8665)" gradientUnits="userSpaceOnUse">
				<stop offset="0.1576" style="stop-color:#FFFFFF" />
				<stop offset="0.3856" style="stop-color:#B7B7B7" />
				<stop offset="0.8124" style="stop-color:#343434" />
				<stop offset="1" style="stop-color:#000000" />
			</radialGradient>
			<path class="st24" d="M249.32,190.62c-0.16,0.05-0.3,0.09-0.45,0.14c-2.97,1.08-4.95,4.53-4.48,7.97c0.49,3.6,3.49,5.8,6.71,4.93
			c0.13-0.03,0.27-0.07,0.4-0.12c2.99-1.09,5-4.53,4.5-7.97C255.5,191.97,252.5,189.76,249.32,190.62z" />
		</g>

		<radialGradient id="SVGID_13_" cx="217.3011" cy="50.0854" r="79.609"
			gradientTransform="matrix(0.9787 -0.205 0.205 0.9787 -28.3557 190.8665)" gradientUnits="userSpaceOnUse">
			<stop offset="0.1576" style="stop-color:#FFFFFF" />
			<stop offset="0.3856" style="stop-color:#B7B7B7" />
			<stop offset="0.8124" style="stop-color:#343434" />
			<stop offset="1" style="stop-color:#000000" />
		</radialGradient>
		<polygon class="st25"
			points="210.74,272.6 194.1,195.69 145.71,180.6 194.49,194.85 264.17,170.27 195.01,195.5 	" />

		<linearGradient id="SVGID_14_" gradientUnits="userSpaceOnUse" x1="249.6959" y1="52.7283" x2="258.5151"
			y2="75.9487" gradientTransform="matrix(0.9787 -0.205 0.205 0.9787 -28.3557 190.8665)">
			<stop offset="0.1455" style="stop-color:#000000" />
			<stop offset="0.2274" style="stop-color:#060606" />
			<stop offset="0.3337" style="stop-color:#161616" />
			<stop offset="0.4532" style="stop-color:#313131" />
			<stop offset="0.5825" style="stop-color:#565656" />
			<stop offset="0.7197" style="stop-color:#868686" />
			<stop offset="0.8612" style="stop-color:#BFBFBF" />
			<stop offset="1" style="stop-color:#FFFFFF" />
		</linearGradient>
		<path class="st26"
			d="M268.36,190.46l-4.19-20.19l-69.46,25.05l7.71,37.11C212.4,221.74,234.6,201.62,268.36,190.46z" />
	</g>
	<g>
		<g>
			<linearGradient id="SVGID_15_" gradientUnits="userSpaceOnUse" x1="220.454" y1="193.0346" x2="240.6668"
				y2="251.2229">
				<stop offset="0" style="stop-color:#333333" />
				<stop offset="0.4038" style="stop-color:#272727" />
				<stop offset="0.979" style="stop-color:#1A1A1A" />
			</linearGradient>
			<path class="st27"
				d="M207.19,279.19c0,0,3.16,1.29,5.76-0.93l47.57-40.46l-2.87-62.04l-61.93,39.61L207.19,279.19z" />
			<linearGradient id="SVGID_16_" gradientUnits="userSpaceOnUse" x1="223.1208" y1="198.7433" x2="175.9576"
				y2="162.8095">
				<stop offset="0" style="stop-color:#333333" />
				<stop offset="0.4038" style="stop-color:#272727" />
				<stop offset="0.979" style="stop-color:#1A1A1A" />
			</linearGradient>
			<path class="st28" d="M141.9,186.74c0,0-1.42-4.56,5.54-7.9l51.17-25.81c1.84-0.93,3.99-1.01,5.9-0.22l51.68,21.35
			c1.75,0.72,1.98,3.1,0.41,4.15l-55.66,37.07L141.9,186.74z" />
			<linearGradient id="SVGID_17_" gradientUnits="userSpaceOnUse" x1="167.8233" y1="172.0565" x2="182.1151"
				y2="275.1618">
				<stop offset="0" style="stop-color:#333333" />
				<stop offset="0.4225" style="stop-color:#303030" />
				<stop offset="0.7485" style="stop-color:#262626" />
				<stop offset="0.979" style="stop-color:#1A1A1A" />
			</linearGradient>
			<path class="st29" d="M202.46,217.9l6.24,59.1c0.17,1.64-1.61,2.75-3.01,1.88l-51.43-32.18c-1.29-0.81-2.18-2.12-2.46-3.62
			l-10.03-54.89c-0.4-2.2,1.88-3.92,3.89-2.93l51.95,25.69C200.31,212.28,202.14,214.91,202.46,217.9z" />
			<path class="st30"
				d="M141.75,187.34c0.62-0.19,1.33-0.17,2,0.16l51.95,25.69c2.7,1.34,4.53,3.96,4.84,6.96l6.23,59.04
			c1.08-0.03,2.04-0.96,1.91-2.18l-6.24-59.1c-0.32-3-2.14-5.62-4.84-6.96l-51.95-25.69C143.92,184.4,141.98,185.58,141.75,187.34z" />

			<radialGradient id="SVGID_18_" cx="-4384.6665" cy="4970.9873" r="8.2573"
				gradientTransform="matrix(7.000000e-04 -1 1 7.000000e-04 -4797.5254 -4208.9355)"
				gradientUnits="userSpaceOnUse">
				<stop offset="0" style="stop-color:#DFD57E" />
				<stop offset="0.1583" style="stop-color:#DED279" />
				<stop offset="0.3552" style="stop-color:#DBCA69" />
				<stop offset="0.5725" style="stop-color:#D5BB50" />
				<stop offset="0.8028" style="stop-color:#CEA82D" />
				<stop offset="1" style="stop-color:#C69409" />
			</radialGradient>
			<path class="st31" d="M170.04,173.5c5.61-0.35,10.32,1.93,10.51,5.09c0.2,3.16-4.19,6-9.8,6.34c-5.61,0.35-10.32-1.93-10.51-5.09
			C160.04,176.68,164.43,173.84,170.04,173.5z" />

			<radialGradient id="SVGID_19_" cx="-4367.2881" cy="5001.9717" r="8.1152"
				gradientTransform="matrix(7.000000e-04 -1 1 7.000000e-04 -4797.5254 -4208.9355)"
				gradientUnits="userSpaceOnUse">
				<stop offset="0" style="stop-color:#DFD57E" />
				<stop offset="0.1583" style="stop-color:#DED279" />
				<stop offset="0.3552" style="stop-color:#DBCA69" />
				<stop offset="0.5725" style="stop-color:#D5BB50" />
				<stop offset="0.8028" style="stop-color:#CEA82D" />
				<stop offset="1" style="stop-color:#C69409" />
			</radialGradient>
			<path class="st32" d="M201.04,156.24c5.51-0.34,10.14,1.9,10.33,5c0.19,3.1-4.12,5.89-9.64,6.23c-5.51,0.34-10.14-1.9-10.33-5
			C191.21,159.37,195.53,156.58,201.04,156.24z" />

			<radialGradient id="SVGID_20_" cx="-4400.4043" cy="5002.5327" r="9.726"
				gradientTransform="matrix(7.000000e-04 -1 1 7.000000e-04 -4797.5254 -4208.9355)"
				gradientUnits="userSpaceOnUse">
				<stop offset="0" style="stop-color:#DFD57E" />
				<stop offset="0.1583" style="stop-color:#DED279" />
				<stop offset="0.3552" style="stop-color:#DBCA69" />
				<stop offset="0.5725" style="stop-color:#D5BB50" />
				<stop offset="0.8028" style="stop-color:#CEA82D" />
				<stop offset="1" style="stop-color:#C69409" />
			</radialGradient>
			<path class="st33" d="M201.51,188.24c6.61-0.41,12.15,2.27,12.38,5.99c0.23,3.72-4.94,7.06-11.55,7.47
			c-6.61,0.41-12.15-2.27-12.38-5.99C189.73,191.99,194.9,188.65,201.51,188.24z" />

			<radialGradient id="SVGID_21_" cx="-4439.7739" cy="4973.9468" r="8.435"
				gradientTransform="matrix(7.000000e-04 -1 1 7.000000e-04 -4797.5254 -4208.9355)"
				gradientUnits="userSpaceOnUse">
				<stop offset="0" style="stop-color:#DFD57E" />
				<stop offset="0.1583" style="stop-color:#DED279" />
				<stop offset="0.3552" style="stop-color:#DBCA69" />
				<stop offset="0.5725" style="stop-color:#D5BB50" />
				<stop offset="0.8028" style="stop-color:#CEA82D" />
				<stop offset="1" style="stop-color:#C69409" />
			</radialGradient>
			<path class="st34" d="M177.44,230.85c3.79,4.49,5.01,9.69,2.73,11.61c-2.28,1.92-7.19-0.17-10.98-4.66
			c-3.79-4.49-5.01-9.69-2.73-11.61C168.74,224.27,173.65,226.35,177.44,230.85z" />

			<radialGradient id="SVGID_22_" cx="-4381.3594" cy="5032.5127" r="8.45"
				gradientTransform="matrix(7.000000e-04 -1 1 7.000000e-04 -4797.5254 -4208.9355)"
				gradientUnits="userSpaceOnUse">
				<stop offset="0" style="stop-color:#DFD57E" />
				<stop offset="0.1583" style="stop-color:#DED279" />
				<stop offset="0.3552" style="stop-color:#DBCA69" />
				<stop offset="0.5725" style="stop-color:#D5BB50" />
				<stop offset="0.8028" style="stop-color:#CEA82D" />
				<stop offset="1" style="stop-color:#C69409" />
			</radialGradient>
			<path class="st35" d="M231.58,170.39c5.83-0.36,10.71,1.83,10.9,4.9c0.19,3.07-4.38,5.85-10.21,6.21
			c-5.83,0.36-10.71-1.83-10.9-4.9C221.18,173.53,225.75,170.75,231.58,170.39z" />

			<radialGradient id="SVGID_23_" cx="-4427.7017" cy="5020.7617" r="8.6962"
				gradientTransform="matrix(7.000000e-04 -1 1 7.000000e-04 -4797.5254 -4208.9355)"
				gradientUnits="userSpaceOnUse">
				<stop offset="0" style="stop-color:#DFD57E" />
				<stop offset="0.1583" style="stop-color:#DED279" />
				<stop offset="0.3552" style="stop-color:#DBCA69" />
				<stop offset="0.5725" style="stop-color:#D5BB50" />
				<stop offset="0.8028" style="stop-color:#CEA82D" />
				<stop offset="1" style="stop-color:#C69409" />
			</radialGradient>
			<path class="st36" d="M226.16,213.85c2.97,2.13,2.69,7.62-0.64,12.28c-3.33,4.66-8.44,6.71-11.41,4.58
			c-2.97-2.13-2.69-7.62,0.64-12.28C218.08,213.78,223.19,211.72,226.16,213.85z" />

			<radialGradient id="SVGID_24_" cx="-4462.8794" cy="5022.9155" r="8.6933"
				gradientTransform="matrix(7.000000e-04 -1 1 7.000000e-04 -4797.5254 -4208.9355)"
				gradientUnits="userSpaceOnUse">
				<stop offset="0" style="stop-color:#DFD57E" />
				<stop offset="0.1583" style="stop-color:#DED279" />
				<stop offset="0.3552" style="stop-color:#DBCA69" />
				<stop offset="0.5725" style="stop-color:#D5BB50" />
				<stop offset="0.8028" style="stop-color:#CEA82D" />
				<stop offset="1" style="stop-color:#C69409" />
			</radialGradient>
			<path class="st37" d="M228.29,249.03c2.97,2.13,2.69,7.62-0.64,12.28c-3.33,4.65-8.43,6.7-11.41,4.58
			c-2.97-2.13-2.69-7.62,0.64-12.28C220.21,248.96,225.32,246.91,228.29,249.03z" />

			<radialGradient id="SVGID_25_" cx="-4433.7661" cy="5037.1011" r="8.0945"
				gradientTransform="matrix(7.000000e-04 -1 1 7.000000e-04 -4797.5254 -4208.9355)"
				gradientUnits="userSpaceOnUse">
				<stop offset="0" style="stop-color:#DFD57E" />
				<stop offset="0.1583" style="stop-color:#DED279" />
				<stop offset="0.3552" style="stop-color:#DBCA69" />
				<stop offset="0.5725" style="stop-color:#D5BB50" />
				<stop offset="0.8028" style="stop-color:#CEA82D" />
				<stop offset="1" style="stop-color:#C69409" />
			</radialGradient>
			<path class="st38" d="M242.18,220.37c2.65,1.89,2.23,7-0.92,11.41c-3.15,4.41-7.85,6.45-10.5,4.56c-2.65-1.89-2.23-7,0.92-11.41
			C234.84,220.52,239.54,218.48,242.18,220.37z" />

			<radialGradient id="SVGID_26_" cx="-4438.8853" cy="5051.9312" r="7.793"
				gradientTransform="matrix(7.000000e-04 -1 1 7.000000e-04 -4797.5254 -4208.9355)"
				gradientUnits="userSpaceOnUse">
				<stop offset="0" style="stop-color:#DFD57E" />
				<stop offset="0.1583" style="stop-color:#DED279" />
				<stop offset="0.3552" style="stop-color:#DBCA69" />
				<stop offset="0.5725" style="stop-color:#D5BB50" />
				<stop offset="0.8028" style="stop-color:#CEA82D" />
				<stop offset="1" style="stop-color:#C69409" />
			</radialGradient>
			<path class="st39" d="M256.72,225.9c2.64,1.88,2.34,6.81-0.65,11c-3,4.19-7.56,6.06-10.2,4.17c-2.64-1.88-2.34-6.81,0.65-11
			C249.52,225.88,254.09,224.01,256.72,225.9z" />

			<radialGradient id="SVGID_27_" cx="-4405.7539" cy="5049.4624" r="7.6125"
				gradientTransform="matrix(7.000000e-04 -1 1 7.000000e-04 -4797.5254 -4208.9355)"
				gradientUnits="userSpaceOnUse">
				<stop offset="0" style="stop-color:#DFD57E" />
				<stop offset="0.1583" style="stop-color:#DED279" />
				<stop offset="0.3552" style="stop-color:#DBCA69" />
				<stop offset="0.5725" style="stop-color:#D5BB50" />
				<stop offset="0.8028" style="stop-color:#CEA82D" />
				<stop offset="1" style="stop-color:#C69409" />
			</radialGradient>
			<path class="st40" d="M253.47,192.36c2.65,1.53,2.72,6.35,0.17,10.76c-2.55,4.41-6.77,6.75-9.41,5.22
			c-2.65-1.53-2.72-6.35-0.17-10.76C246.61,193.17,250.83,190.83,253.47,192.36z" />
		</g>
	</g>
	<path class="st41" d="M147.1,217.35c9.94-9.47,31.96-27.77,65.32-34.92c18.34-3.93,34.25-3.24,45.42-1.77
	c-0.05-1.32-0.1-2.65-0.15-3.97c0.01-0.42-0.04-1.07-0.43-1.65c-0.26-0.38-0.61-0.66-1.07-0.88c-1.14-0.55-12.17-5.19-27.26-11.45
	c-5.45,0.1-12.88,0.58-21.55,2.21c-14.37,2.71-24.64,7.19-32.69,10.75c-8.68,3.84-19.92,9.62-32.16,18.24
	C144.05,201.73,145.58,209.54,147.1,217.35z" />
	<g>

		<linearGradient id="SVGID_28_" gradientUnits="userSpaceOnUse" x1="196.7682" y1="207.2181" x2="196.7682"
			y2="132.3705" gradientTransform="matrix(1.0266 0.0424 -0.0323 0.7825 -0.8086 20.511)">
			<stop offset="0" style="stop-color:#E2C36F" />
			<stop offset="0.2539" style="stop-color:#CB9F41" />
			<stop offset="0.4793" style="stop-color:#E9D088" />
			<stop offset="0.715" style="stop-color:#C59532" />
			<stop offset="1" style="stop-color:#F1DE9C" />
		</linearGradient>
		<path class="st42" d="M119.37,180.21c-3.76-10.66,28.05-26.49,71.04-35.35c42.99-8.86,80.89-7.4,84.65,3.26
		c0.66,1.87,0.2,3.89-1.19,6.01c2.67-3.18,3.68-6.25,2.7-9.03c-4.25-12.06-43.91-14.37-88.58-5.16
		c-44.67,9.21-77.44,26.44-73.19,38.5c2.01,5.69,11.92,9.21,26.52,10.37C129.13,187.75,121.01,184.86,119.37,180.21z" />
	</g>
	<path class="st43" d="M277.53,171.34c-0.23-7.65-0.45-15.29-0.68-22.94c-1.55-1.43-3.89-3.35-7-5.15
	c-6.76-3.9-14.21-5.48-28.69-5.49c-13.6-0.01-23.92,1.37-26.16,1.68c-11.7,1.61-29.04,4.08-52.08,11.28
	c-24.84,7.76-33.47,13.88-38.64,18.24c-4.28,3.6-7.42,7.05-9.47,9.48c2.11,13.38,4.22,26.75,6.33,40.13
	c1.48-3.42,3.9-8.31,7.71-13.61c13.14-18.29,31.28-25.36,55.2-34.32c21.38-8.01,35.34-9.95,51.84-12.24
	c16.36-2.27,28.31-2.44,36.24,5.04C274.97,166.12,276.59,169.12,277.53,171.34z" />
	<g>
		<linearGradient id="SVGID_29_" gradientUnits="userSpaceOnUse" x1="199.1195" y1="230.4" x2="199.1195"
			y2="155.5524">
			<stop offset="0" style="stop-color:#E2C36F" />
			<stop offset="0.2539" style="stop-color:#CB9F41" />
			<stop offset="0.4793" style="stop-color:#E9D088" />
			<stop offset="0.715" style="stop-color:#C59532" />
			<stop offset="1" style="stop-color:#F1DE9C" />
		</linearGradient>
		<path class="st44" d="M125.64,220.58c-4.08-13.4,26.21-35.27,67.67-48.84c41.45-13.57,78.37-13.71,82.45-0.3
		c0.72,2.35,0.35,4.96-0.91,7.73c2.46-4.2,3.33-8.16,2.26-11.67c-4.62-15.16-43.28-16.01-86.35-1.91
		c-43.07,14.1-74.24,37.82-69.63,52.98c2.18,7.16,11.96,11.12,26.21,11.83C135.44,229.69,127.42,226.42,125.64,220.58z" />
	</g>

	<svg xmlns="http://www.w3.org/2000/svg" xmlns:xlink="http://www.w3.org/1999/xlink" viewBox="0 0 256 256" x="128"
		width="5rem">
		<path fill="#F60"
			d="M127.998 0C57.318 0 0 57.317 0 127.999c0 14.127 2.29 27.716 6.518 40.43H44.8V60.733l83.2 83.2l83.198-83.2v107.695h38.282c4.231-12.714 6.521-26.303 6.521-40.43C256 57.314 198.681 0 127.998 0"
			data-darkreader-inline-fill="" style="--darkreader-inline-fill:#cf6d2c;"></path>
		<path fill="#4C4C4C"
			d="m108.867 163.062l-36.31-36.311v67.765H18.623c22.47 36.863 63.051 61.48 109.373 61.48s86.907-24.617 109.374-61.48h-53.933V126.75l-36.31 36.31l-19.13 19.129l-19.128-19.128h-.002Z"
			data-darkreader-inline-fill="" style="--darkreader-inline-fill:#9d9892;"></path>
	</svg>
</svg>